<svg id="visual" viewBox="0 0 1920 1080" width="1920" height="1080" xmlns="http://www.w3.org/2000/svg" xmlns:xlink="http://www.w3.org/1999/xlink" version="1.1"><rect x="0" y="0" width="1920" height="1080" fill="#FAF7EF"></rect><g transform="translate(899.6602825342353 575.8650449319348)"><path d="M290.8 -402.7C385.3 -331.6 476 -257.9 534 -155.6C591.9 -53.3 616.9 77.7 565.3 167.3C513.6 256.9 385.2 305.2 278.2 339.5C171.2 373.7 85.6 393.8 -18.1 418.8C-121.9 443.7 -243.7 473.5 -333.1 433.5C-422.5 393.6 -479.5 283.9 -472 182.7C-464.6 81.4 -392.8 -11.4 -336.7 -86.3C-280.6 -161.2 -240.2 -218.1 -186.7 -302.6C-133.2 -387 -66.6 -499 15.8 -520.7C98.2 -542.4 196.3 -473.9 290.8 -402.7" fill="#f1d5db"></path></g></svg>