<svg id="visual" viewBox="0 0 1920 1080" width="1920" height="1080" xmlns="http://www.w3.org/2000/svg" xmlns:xlink="http://www.w3.org/1999/xlink" version="1.1"><rect x="0" y="0" width="1920" height="1080" fill="#FAF7EF"></rect><g fill="#f1d5db"><circle r="85" cx="526" cy="449"></circle><circle r="43" cx="555" cy="193"></circle><circle r="83" cx="1399" cy="152"></circle><circle r="42" cx="885" cy="273"></circle><circle r="43" cx="308" cy="798"></circle><circle r="82" cx="243" cy="374"></circle><circle r="70" cx="531" cy="633"></circle><circle r="44" cx="1606" cy="210"></circle><circle r="65" cx="89" cy="192"></circle><circle r="43" cx="1542" cy="891"></circle><circle r="56" cx="294" cy="556"></circle><circle r="46" cx="905" cy="654"></circle><circle r="75" cx="1802" cy="180"></circle><circle r="77" cx="171" cy="674"></circle><circle r="44" cx="1688" cy="558"></circle><circle r="71" cx="708" cy="580"></circle><circle r="80" cx="695" cy="949"></circle><circle r="61" cx="1136" cy="937"></circle></g></svg>