<svg id="visual" viewBox="0 0 1920 1080" width="1920" height="1080" xmlns="http://www.w3.org/2000/svg" xmlns:xlink="http://www.w3.org/1999/xlink" version="1.1"><rect x="0" y="0" width="1920" height="1080" fill="#FAF7EF"></rect><path d="M0 96L213 96L213 182L427 182L427 274L640 274L640 107L853 107L853 241L1067 241L1067 93L1280 93L1280 121L1493 121L1493 355L1707 355L1707 299L1920 299L1920 111L1920 1081L1920 1081L1707 1081L1707 1081L1493 1081L1493 1081L1280 1081L1280 1081L1067 1081L1067 1081L853 1081L853 1081L640 1081L640 1081L427 1081L427 1081L213 1081L213 1081L0 1081Z" fill="#f1d5db"></path><path d="M0 443L213 443L213 502L427 502L427 542L640 542L640 326L853 326L853 314L1067 314L1067 337L1280 337L1280 336L1493 336L1493 545L1707 545L1707 353L1920 353L1920 430L1920 1081L1920 1081L1707 1081L1707 1081L1493 1081L1493 1081L1280 1081L1280 1081L1067 1081L1067 1081L853 1081L853 1081L640 1081L640 1081L427 1081L427 1081L213 1081L213 1081L0 1081Z" fill="#f2b9c7"></path><path d="M0 588L213 588L213 532L427 532L427 639L640 639L640 551L853 551L853 661L1067 661L1067 787L1280 787L1280 589L1493 589L1493 733L1707 733L1707 784L1920 784L1920 496L1920 1081L1920 1081L1707 1081L1707 1081L1493 1081L1493 1081L1280 1081L1280 1081L1067 1081L1067 1081L853 1081L853 1081L640 1081L640 1081L427 1081L427 1081L213 1081L213 1081L0 1081Z" fill="#f19db5"></path><path d="M0 921L213 921L213 773L427 773L427 1003L640 1003L640 794L853 794L853 896L1067 896L1067 973L1280 973L1280 968L1493 968L1493 896L1707 896L1707 826L1920 826L1920 1013L1920 1081L1920 1081L1707 1081L1707 1081L1493 1081L1493 1081L1280 1081L1280 1081L1067 1081L1067 1081L853 1081L853 1081L640 1081L640 1081L427 1081L427 1081L213 1081L213 1081L0 1081Z" fill="#ef7fa4"></path></svg>