<svg id="visual" viewBox="0 0 1920 1080" width="1920" height="1080" xmlns="http://www.w3.org/2000/svg" xmlns:xlink="http://www.w3.org/1999/xlink" version="1.1"><path d="M0 347L175 336L349 185L524 206L698 282L873 336L1047 293L1222 249L1396 293L1571 260L1745 379L1920 282L1920 0L1745 0L1571 0L1396 0L1222 0L1047 0L873 0L698 0L524 0L349 0L175 0L0 0Z" fill="#faf7ef"></path><path d="M0 509L175 433L349 314L524 368L698 357L873 476L1047 422L1222 347L1396 455L1571 347L1745 509L1920 390L1920 280L1745 377L1571 258L1396 291L1222 247L1047 291L873 334L698 280L524 204L349 183L175 334L0 345Z" fill="#f7e2dd"></path><path d="M0 746L175 692L349 617L524 789L698 768L873 692L1047 746L1222 714L1396 714L1571 735L1745 681L1920 681L1920 388L1745 507L1571 345L1396 453L1222 345L1047 420L873 474L698 355L524 366L349 312L175 431L0 507Z" fill="#faf7ef"></path><path d="M0 941L175 908L349 843L524 919L698 951L873 833L1047 919L1222 843L1396 887L1571 951L1745 876L1920 897L1920 679L1745 679L1571 733L1396 712L1222 712L1047 744L873 690L698 766L524 787L349 615L175 690L0 744Z" fill="#f7e2dd"></path><path d="M0 1081L175 1081L349 1081L524 1081L698 1081L873 1081L1047 1081L1222 1081L1396 1081L1571 1081L1745 1081L1920 1081L1920 895L1745 874L1571 949L1396 885L1222 841L1047 917L873 831L698 949L524 917L349 841L175 906L0 939Z" fill="#faf7ef"></path></svg>