<svg id="visual" viewBox="0 0 1920 1080" width="1920" height="1080" xmlns="http://www.w3.org/2000/svg" xmlns:xlink="http://www.w3.org/1999/xlink" version="1.1"><path d="M0 87L45.7 101.5C91.3 116 182.7 145 274.2 150.5C365.7 156 457.3 138 548.8 132.5C640.3 127 731.7 134 823 144.8C914.3 155.7 1005.7 170.3 1097 177.7C1188.3 185 1279.7 185 1371.2 174.2C1462.7 163.3 1554.3 141.7 1645.8 129C1737.3 116.3 1828.7 112.7 1874.3 110.8L1920 109L1920 0L1874.3 0C1828.7 0 1737.3 0 1645.8 0C1554.3 0 1462.7 0 1371.2 0C1279.7 0 1188.3 0 1097 0C1005.7 0 914.3 0 823 0C731.7 0 640.3 0 548.8 0C457.3 0 365.7 0 274.2 0C182.7 0 91.3 0 45.7 0L0 0Z" fill="#faf7ef"></path><path d="M0 271L45.7 323.2C91.3 375.3 182.7 479.7 274.2 481.5C365.7 483.3 457.3 382.7 548.8 377.3C640.3 372 731.7 462 823 516C914.3 570 1005.7 588 1097 600.5C1188.3 613 1279.7 620 1371.2 576.8C1462.7 533.7 1554.3 440.3 1645.8 402.7C1737.3 365 1828.7 383 1874.3 392L1920 401L1920 107L1874.3 108.8C1828.7 110.7 1737.3 114.3 1645.8 127C1554.3 139.7 1462.7 161.3 1371.2 172.2C1279.7 183 1188.3 183 1097 175.7C1005.7 168.3 914.3 153.7 823 142.8C731.7 132 640.3 125 548.8 130.5C457.3 136 365.7 154 274.2 148.5C182.7 143 91.3 114 45.7 99.5L0 85Z" fill="#f6dcd6"></path><path d="M0 757L45.7 760.7C91.3 764.3 182.7 771.7 274.2 755.5C365.7 739.3 457.3 699.7 548.8 688.8C640.3 678 731.7 696 823 730.2C914.3 764.3 1005.7 814.7 1097 834.5C1188.3 854.3 1279.7 843.7 1371.2 814.8C1462.7 786 1554.3 739 1645.8 721C1737.3 703 1828.7 714 1874.3 719.5L1920 725L1920 399L1874.3 390C1828.7 381 1737.3 363 1645.8 400.7C1554.3 438.3 1462.7 531.7 1371.2 574.8C1279.7 618 1188.3 611 1097 598.5C1005.7 586 914.3 568 823 514C731.7 460 640.3 370 548.8 375.3C457.3 380.7 365.7 481.3 274.2 479.5C182.7 477.7 91.3 373.3 45.7 321.2L0 269Z" fill="#faf7ef"></path><path d="M0 973L45.7 965.8C91.3 958.7 182.7 944.3 274.2 935.3C365.7 926.3 457.3 922.7 548.8 929.8C640.3 937 731.7 955 823 971.2C914.3 987.3 1005.7 1001.7 1097 999.8C1188.3 998 1279.7 980 1371.2 969.2C1462.7 958.3 1554.3 954.7 1645.8 945.7C1737.3 936.7 1828.7 922.3 1874.3 915.2L1920 908L1920 723L1874.3 717.5C1828.7 712 1737.3 701 1645.8 719C1554.3 737 1462.7 784 1371.2 812.8C1279.7 841.7 1188.3 852.3 1097 832.5C1005.7 812.7 914.3 762.3 823 728.2C731.7 694 640.3 676 548.8 686.8C457.3 697.7 365.7 737.3 274.2 753.5C182.7 769.7 91.3 762.3 45.7 758.7L0 755Z" fill="#f6dcd6"></path><path d="M0 1081L45.7 1081C91.3 1081 182.7 1081 274.2 1081C365.7 1081 457.3 1081 548.8 1081C640.3 1081 731.7 1081 823 1081C914.3 1081 1005.7 1081 1097 1081C1188.3 1081 1279.7 1081 1371.2 1081C1462.7 1081 1554.3 1081 1645.8 1081C1737.3 1081 1828.7 1081 1874.3 1081L1920 1081L1920 906L1874.3 913.2C1828.7 920.3 1737.3 934.7 1645.8 943.7C1554.3 952.7 1462.7 956.3 1371.2 967.2C1279.7 978 1188.3 996 1097 997.8C1005.7 999.7 914.3 985.3 823 969.2C731.7 953 640.3 935 548.8 927.8C457.3 920.7 365.7 924.3 274.2 933.3C182.7 942.3 91.3 956.7 45.7 963.8L0 971Z" fill="#faf7ef"></path></svg>